<svg width="30" height="30" viewBox="0 0 30 30" fill="none" xmlns="http://www.w3.org/2000/svg">
<g clip-path="url(#clip0_14_27)">
<path d="M29.8535 10.8164L26.8887 1.92188C26.5078 0.773437 25.4355 0 24.2227 0H15.9375V11.25H29.9238C29.9004 11.1035 29.9004 10.957 29.8535 10.8164ZM14.0625 0H5.77734C4.56445 0 3.49219 0.773437 3.11133 1.92188L0.146484 10.8164C0.0996094 10.957 0.0996094 11.1035 0.0761719 11.25H14.0625V0ZM0 13.125V27.1875C0 28.7402 1.25977 30 2.8125 30H27.1875C28.7402 30 30 28.7402 30 27.1875V13.125H0Z" fill="black"/>
</g>
<defs>
<clipPath id="clip0_14_27">
<rect width="30" height="30" fill="white"/>
</clipPath>
</defs>
</svg>
